<svg width="64" height="64" viewBox="0 0 64 64" fill="none" xmlns="http://www.w3.org/2000/svg">
  <title>Kvalifits favicon</title>
  <desc>k + aktsentpunkt ringis.</desc>
  <rect width="64" height="64" rx="16" fill="#0B0B12"/>
  <circle cx="32" cy="32" r="23" stroke="#FFFFFF" stroke-opacity="0.86" stroke-width="1.6"/>
  <path d="M28 20C28.8284 20 29.5 20.6716 29.5 21.5V34.1L40.8 22.8C41.1 22.5 41.5 22.3 42 22.3H47.1C48.4 22.3 49.1 23.9 48.2 24.8L36.9 36.1L48.6 47.8C49.6 48.8 48.9 50.6 47.5 50.6H42.2C41.7 50.6 41.3 50.4 41 50.1L29.5 38.6V48.5C29.5 49.3284 28.8284 50 28 50H23.5C22.6716 50 22 49.3284 22 48.5V21.5C22 20.6716 22.6716 20 23.5 20H28Z" fill="#FFFFFF" fill-opacity="0.94"/>
  <circle cx="42" cy="42" r="4" fill="#E31F8D"/>
</svg>

