<svg width="520" height="120" viewBox="0 0 520 120" fill="none" xmlns="http://www.w3.org/2000/svg">
  <rect width="520" height="120" fill="none"/>
  <g>
    <path d="M58 24C60.2091 24 62 25.7909 62 28V70.2L95.4 34.6C96.2 33.8 97.3 33.3 98.4 33.3H114.4C118 33.3 119.8 37.6 117.2 40.2L83.7 73.9L119.1 109.4C121.8 112 120 116.7 116.3 116.7H99.6C98.5 116.7 97.4 116.2 96.6 115.4L62 80.6V112C62 114.209 60.2091 116 58 116H46C43.7909 116 42 114.209 42 112V28C42 25.7909 43.7909 24 46 24H58Z" fill="white" fill-opacity="0.92"/>
    <path d="M168.2 33.3C187.5 33.3 200.6 46.4 200.6 66.2V112C200.6 114.209 198.8 116 196.6 116H185.1C182.9 116 181.1 114.209 181.1 112V104.6C175.7 112.5 166.7 117.8 154.8 117.8C137.5 117.8 125.5 108 125.5 92.7C125.5 77.1 137.8 67.8 158.6 67.8H180.6V65.7C180.6 55.6 174.6 49.6 163.8 49.6C155.7 49.6 149.4 53.1 146.1 59.2C145.4 60.6 144 61.5 142.4 61.5H130.3C127.7 61.5 125.8 59.1 126.5 56.6C131 41.2 146 33.3 168.2 33.3ZM180.6 83.7H160.6C149.1 83.7 144.7 87.8 144.7 92.6C144.7 98.2 149.2 102.1 157.7 102.1C170.6 102.1 180.6 94 180.6 84.7V83.7Z" fill="white" fill-opacity="0.92"/>
    <path d="M246 24C248.209 24 250 25.7909 250 28V112C250 114.209 248.209 116 246 116H233.8C231.591 116 229.8 114.209 229.8 112V28C229.8 25.7909 231.591 24 233.8 24H246Z" fill="white" fill-opacity="0.92"/>
    <path d="M314.7 33.3C336.6 33.3 350.6 46.9 351.8 66.3C351.9 68.6 350.1 70.5 347.8 70.5H335.6C333.5 70.5 331.8 68.9 331.5 66.8C330.1 56.2 323.3 49.6 313.1 49.6C301.1 49.6 293.1 58.2 293.1 75.0C293.1 92.0 301.2 100.6 313.1 100.6C323.4 100.6 330.2 94.1 331.6 83.6C331.9 81.5 333.6 79.9 335.7 79.9H347.9C350.2 79.9 352 81.8 351.9 84.1C350.7 103.4 336.5 117 314.6 117C289.2 117 272.7 99 272.7 75.0C272.7 51.1 289.3 33.3 314.7 33.3Z" fill="white" fill-opacity="0.92"/>
    <path d="M406.8 33.3C431.9 33.3 448.3 51.2 448.3 75.0C448.3 98.8 431.9 117 406.8 117C381.6 117 365.2 98.8 365.2 75.0C365.2 51.2 381.6 33.3 406.8 33.3ZM406.8 49.6C394.2 49.6 385.8 58.5 385.8 75.0C385.8 91.5 394.2 100.6 406.8 100.6C419.3 100.6 427.7 91.5 427.7 75.0C427.7 58.5 419.3 49.6 406.8 49.6Z" fill="white" fill-opacity="0.92"/>
  </g>
  <circle cx="483" cy="96" r="10" fill="#E31F8D"/>
  <text x="42" y="108" font-family="ui-sans-serif, system-ui, -apple-system, Segoe UI, Roboto" font-size="0" fill="white">kvalifits.</text>
</svg>

