<svg width="120" height="120" viewBox="0 0 120 120" fill="none" xmlns="http://www.w3.org/2000/svg">
  <rect width="120" height="120" rx="28" fill="#0B0B12"/>
  <path d="M41 30C42.6569 30 44 31.3431 44 33V63.6L69.2 37.2C69.8 36.6 70.6 36.3 71.4 36.3H82.8C85.5 36.3 86.8 39.5 84.9 41.4L59.7 66.7L85 92C87 94 85.6 97.7 82.7 97.7H70.8C70 97.7 69.2 97.4 68.6 96.8L44 72.7V95C44 96.6569 42.6569 98 41 98H32C30.3431 98 29 96.6569 29 95V33C29 31.3431 30.3431 30 32 30H41Z" fill="white" fill-opacity="0.92"/>
  <circle cx="86" cy="90" r="7" fill="#E31F8D"/>
</svg>

