<svg width="64" height="64" viewBox="0 0 64 64" fill="none" xmlns="http://www.w3.org/2000/svg">
  <title>Kvalifits favicon (A)</title>
  <desc>Lihtsustatud k + aktsentpunkt.</desc>
  <rect width="64" height="64" rx="16" fill="#0B0B12"/>
  <path d="M24 16C24.8284 16 25.5 16.6716 25.5 17.5V34.4L39.6 20.3C39.9 20 40.3 19.8 40.8 19.8H46.6C47.9 19.8 48.6 21.4 47.7 22.3L33.7 36.3L48 50.6C49 51.6 48.3 53.4 46.9 53.4H40.9C40.4 53.4 40 53.2 39.7 52.9L25.5 38.7V50.5C25.5 51.3284 24.8284 52 24 52H19.5C18.6716 52 18 51.3284 18 50.5V17.5C18 16.6716 18.6716 16 19.5 16H24Z" fill="#FFFFFF" fill-opacity="0.94"/>
  <circle cx="47" cy="47" r="4" fill="#E31F8D"/>
</svg>

