<svg width="120" height="120" viewBox="0 0 120 120" fill="none" xmlns="http://www.w3.org/2000/svg">
  <title>Kvalifits icon (A, dark)</title>
  <desc>Minimalistlik k.-märk tumedal taustal.</desc>
  <rect width="120" height="120" rx="28" fill="#0B0B12"/>
  <path d="M44 28C45.6569 28 47 29.3431 47 31V64.4L73.7 37.7C74.3 37.1 75.1 36.8 75.9 36.8H86.6C89.3 36.8 90.6 40 88.7 41.9L62.1 68.5L89.1 95.5C91.1 97.5 89.7 101.2 86.8 101.2H75.8C75 101.2 74.2 100.9 73.6 100.3L47 73.7V98C47 99.6569 45.6569 101 44 101H35C33.3431 101 32 99.6569 32 98V31C32 29.3431 33.3431 28 35 28H44Z" fill="#FFFFFF" fill-opacity="0.94"/>
  <circle cx="87" cy="91" r="7" fill="#E31F8D"/>
</svg>

