<svg width="120" height="120" viewBox="0 0 120 120" fill="none" xmlns="http://www.w3.org/2000/svg">
  <title>Kvalifits icon (C, dark)</title>
  <desc>Kőige puhtam ja ajatum k.-märk tumedal taustal.</desc>
  <rect width="120" height="120" rx="28" fill="#0B0B12"/>
  <path d="M44 29C45.6569 29 47 30.3431 47 32V64.8L73.6 38.2C74.2 37.6 75 37.3 75.8 37.3H86.5C89.2 37.3 90.5 40.5 88.6 42.4L62.2 68.8L89 95.6C91 97.6 89.6 101.3 86.7 101.3H75.9C75.1 101.3 74.3 101 73.7 100.4L47 73.7V98C47 99.6569 45.6569 101 44 101H35C33.3431 101 32 99.6569 32 98V32C32 30.3431 33.3431 29 35 29H44Z" fill="#FFFFFF" fill-opacity="0.92"/>
  <circle cx="86.5" cy="91.5" r="6.5" fill="#E31F8D"/>
</svg>

