<svg width="120" height="120" viewBox="0 0 120 120" fill="none" xmlns="http://www.w3.org/2000/svg">
  <title>Kvalifits icon (B, dark)</title>
  <desc>Futuristlikum k-m‰rk: lihtne monoliit + aktsentpunkt.</desc>
  <rect width="120" height="120" rx="28" fill="#0B0B12"/>
  <defs>
    <linearGradient id="kvbGlow" x1="22" y1="18" x2="108" y2="112" gradientUnits="userSpaceOnUse">
      <stop stop-color="rgba(168,85,247,0.55)"/>
      <stop offset="0.55" stop-color="rgba(99,102,241,0.18)"/>
      <stop offset="1" stop-color="rgba(0,0,0,0)"/>
    </linearGradient>
  </defs>
  <path d="M16 16H120V120H16V16Z" fill="url(#kvbGlow)" opacity="0.25"/>
  <path d="M43 28C44.6569 28 46 29.3431 46 31V64.2L73.2 37C73.8 36.4 74.6 36.1 75.4 36.1H87.2C89.9 36.1 91.2 39.3 89.3 41.2L62.1 68.4L90.2 96.5C92.2 98.5 90.8 102.2 87.9 102.2H75.9C75.1 102.2 74.3 101.9 73.7 101.3L46 73.6V98.2C46 99.8569 44.6569 101.2 43 101.2H34C32.3431 101.2 31 99.8569 31 98.2V31C31 29.3431 32.3431 28 34 28H43Z" fill="#FFFFFF" fill-opacity="0.93"/>
  <circle cx="88" cy="92" r="7" fill="#E31F8D"/>
</svg>

